<?xml version="1.0" standalone="no"?>
<!DOCTYPE svg PUBLIC "-//W3C//DTD SVG 20010904//EN"
 "http://www.w3.org/TR/2001/REC-SVG-20010904/DTD/svg10.dtd">
<svg version="1.0" xmlns="http://www.w3.org/2000/svg"
 width="300.000000pt" height="178.000000pt" viewBox="0 0 300.000000 178.000000"
 preserveAspectRatio="xMidYMid meet">
<metadata>
Created by potrace 1.10, written by Peter Selinger 2001-2011
</metadata>
<g transform="translate(0.000000,178.000000) scale(0.100000,-0.100000)"
fill="#000000" stroke="none">
<path d="M1602 1218 c-7 -7 -12 -17 -12 -23 0 -25 -63 -84 -108 -101 -76 -28
-73 -36 11 -28 l78 7 -3 -107 -3 -107 100 3 100 3 0 90 c0 78 -4 98 -29 153
-28 60 -83 122 -109 122 -7 0 -18 -5 -25 -12z m78 -79 c29 -41 70 -136 70
-164 0 -9 -16 1 -39 24 -21 21 -56 44 -77 51 -22 7 -47 19 -56 28 -16 14 -15
17 14 58 17 24 37 44 45 44 7 0 26 -18 43 -41z m-39 -109 c16 0 79 -70 85 -95
9 -37 -3 -45 -62 -45 -65 0 -71 9 -66 95 3 45 7 55 19 51 8 -3 19 -6 24 -6z"/>
<path d="M1250 1067 c-30 -7 -76 -23 -102 -35 -45 -22 -108 -82 -108 -102 0
-6 22 -24 50 -41 27 -16 58 -45 68 -62 23 -37 49 -116 57 -170 7 -46 62 -111
107 -126 31 -11 31 -11 -10 25 -65 55 -93 124 -56 138 9 3 38 6 64 6 62 0 73
-17 68 -105 -1 -35 1 -67 5 -71 4 -4 7 37 7 92 l0 99 -92 0 -93 0 -3 45 c-4
84 -12 112 -28 106 -9 -4 -33 9 -59 31 -37 30 -42 39 -34 55 15 28 94 75 155
93 79 23 95 19 50 -11 -24 -17 -46 -44 -62 -77 -40 -86 -39 -87 76 -87 l100 0
0 100 0 100 -32 0 c-18 0 -42 2 -53 5 -11 2 -45 -2 -75 -8z m138 -90 c4 -79
-5 -88 -85 -85 -35 1 -67 6 -69 10 -11 17 18 76 49 99 41 31 58 38 82 36 17
-2 20 -10 23 -60z"/>
<path d="M1761 795 c0 -66 11 -106 23 -87 5 8 20 2 49 -21 68 -52 68 -56 4
-103 -45 -33 -108 -58 -171 -69 l-40 -7 44 34 c42 31 88 93 78 104 -3 2 -18
-14 -33 -37 -32 -45 -75 -72 -108 -67 -20 3 -22 10 -25 66 -3 60 -2 63 25 73
15 6 56 9 91 6 34 -3 62 -1 62 4 0 5 -28 9 -62 9 -35 0 -80 3 -100 6 l-38 7 0
-101 0 -101 36 -7 c99 -18 274 42 315 109 22 36 21 46 -7 61 -60 33 -89 63
-115 120 l-28 61 0 -60z"/>
<path d="M1201 599 c-2 -67 66 -216 110 -239 35 -19 55 -11 74 30 23 51 41 66
112 96 l58 24 -79 0 c-68 0 -77 -2 -66 -15 18 -21 -64 -119 -88 -106 -38 20
-84 99 -106 182 -9 34 -15 44 -15 28z"/>
<path d="M508 222 c-16 -3 -18 -15 -18 -88 0 -77 2 -84 20 -84 16 0 20 7 20
35 0 33 2 35 35 35 33 0 35 -2 35 -35 0 -28 4 -35 20 -35 18 0 20 7 20 84 0
75 -2 84 -20 89 -17 4 -20 0 -20 -29 0 -32 -2 -34 -34 -34 -32 0 -35 3 -38 33
-2 25 -7 32 -20 29z"/>
<path d="M1138 222 c-15 -3 -18 -15 -18 -85 l0 -82 52 1 c45 1 53 4 56 22 3
19 -1 20 -32 15 l-35 -5 -3 68 c-3 60 -5 69 -20 66z"/>
<path d="M1460 224 c-1 -2 -1 -41 -1 -86 -1 -74 1 -83 18 -83 14 0 18 8 18 33
0 30 2 32 36 32 35 0 37 -1 35 -32 -1 -26 3 -33 18 -33 17 0 19 8 19 85 0 77
-2 85 -19 85 -15 0 -19 -7 -18 -33 2 -30 0 -32 -35 -32 -34 0 -36 2 -36 31 0
23 -5 33 -17 35 -10 1 -18 0 -18 -2z"/>
<path d="M1690 138 c0 -81 2 -88 20 -88 16 0 20 7 20 35 0 32 2 35 30 35 23 0
30 4 30 20 0 16 -7 20 -30 20 -21 0 -30 5 -30 16 0 13 7 15 30 11 26 -6 30 -4
30 16 0 20 -5 22 -50 22 l-50 0 0 -87z"/>
<path d="M1870 140 l0 -85 52 1 c45 1 53 5 53 20 0 15 -6 18 -32 16 l-33 -3 0
68 c0 62 -2 69 -20 69 -18 0 -20 -7 -20 -86z"/>
<path d="M2083 215 c-56 -24 -70 -84 -30 -129 34 -40 77 -43 115 -11 40 33 43
81 10 119 -30 32 -56 38 -95 21z m75 -79 c3 -20 -3 -29 -22 -38 -22 -9 -29 -8
-46 7 -26 24 -25 50 2 69 19 13 25 14 43 2 11 -7 21 -25 23 -40z"/>
<path d="M2260 218 c0 -6 9 -45 21 -88 18 -66 24 -76 42 -75 16 1 24 12 32 43
14 58 21 59 34 7 9 -37 15 -45 35 -45 20 0 25 9 44 79 26 95 26 87 2 87 -21 0
-25 -7 -36 -69 -8 -45 -19 -34 -29 25 -6 31 -11 38 -30 38 -24 0 -28 -6 -40
-69 -8 -39 -18 -28 -29 30 -4 25 -13 38 -26 42 -11 3 -20 0 -20 -5z"/>
<path d="M720 140 l0 -80 39 0 c22 0 46 -3 55 -6 12 -5 16 0 16 18 0 22 -4 24
-35 20 -27 -3 -35 -1 -35 12 0 11 9 16 30 16 23 0 30 4 30 20 0 16 -7 20 -30
20 -21 0 -30 5 -30 16 0 13 7 15 35 11 30 -5 35 -3 35 14 0 16 -7 19 -55 19
l-55 0 0 -80z"/>
<path d="M927 153 c-14 -38 -28 -76 -32 -85 -10 -26 31 -24 45 2 14 26 56 26
70 0 10 -18 56 -30 48 -12 -1 4 -16 42 -32 85 -24 65 -32 77 -51 77 -19 0 -27
-12 -48 -67z"/>
<path d="M1260 199 c0 -15 5 -20 23 -17 21 3 22 0 22 -62 1 -58 3 -65 20 -65
18 0 20 7 21 65 2 60 3 65 23 63 15 -2 21 3 21 17 0 18 -7 20 -65 20 -59 0
-65 -2 -65 -21z"/>
</g>
</svg>
